# xmcd
#
# Track frame offsets:
#	150
#	26792
#	45274
#	82643
#	103837
#	135897
#	148367
#	172126
#	187642
#	211138
#	230306
#	308634
#
# Disc length: 4505 seconds
#
# Revision: 1
# Processed by: cddbd v1.5.2PL0 Copyright (c) Steve Scherf et al.
# Submitted via: audiograbber 1.83.01
#
DISCID=9011970c
DTITLE=Grateful Dead - 74-09-21 Palais des Sports, Paris, France
DYEAR=1900
DGENRE=
TTITLE0=Bertha
TTITLE1=Mexicali Blues
TTITLE2=Sugaree
TTITLE3=Promised Land
TTITLE4=Peggy-O
TTITLE5=Me and My Uncle
TTITLE6=Deal
TTITLE7=The Race Is On
TTITLE8=Loose Lucy
TTITLE9=El Paso
TTITLE10=Eyes Of The World
TTITLE11=China Doll
EXTD=
EXTT0=
EXTT1=
EXTT2=
EXTT3=
EXTT4=
EXTT5=
EXTT6=
EXTT7=
EXTT8=
EXTT9=
EXTT10=
EXTT11=
PLAYORDER=
